PathFileType	4	(X/Y/Z)	C:\Users\willi\Desktop\Data_PaperCallum_v2\17_Akif\Gait02\marker_experimental_temp.trc
DataRate	CameraRate	NumFrames	NumMarkers	Units	OrigDataRate	OrigDataStartFrame	OrigNumFrames
100.000000	100.000000	4	27	mm	100.000000	104	167
Frame#	Time	C7			T10			Clav			Sternum			Right_Back			PCL_CRAN			PCL_RECHTS			PCL_LINKS			RCL_UL_CRAN			RCL_UL_POST			RCL_UL_ANT			RCL_LL_CRAN			RCL_LL_POST			RCL_LL_ANT			Right_Heel			Right_Toe			Right_M5			LCL_UL_CRAN			LCL_UL_POST			LCL_UL_ANT			LCL_LL_CRAN			LCL_LL_POST			LCL_LL_ANT			Left_Heel			Left_Toe			Left_M5			*26			
		X1	Y1	Z1	X2	Y2	Z2	X3	Y3	Z3	X4	Y4	Z4	X5	Y5	Z5	X6	Y6	Z6	X7	Y7	Z7	X8	Y8	Z8	X9	Y9	Z9	X10	Y10	Z10	X11	Y11	Z11	X12	Y12	Z12	X13	Y13	Z13	X14	Y14	Z14	X15	Y15	Z15	X16	Y16	Z16	X17	Y17	Z17	X18	Y18	Z18	X19	Y19	Z19	X20	Y20	Z20	X21	Y21	Z21	X22	Y22	Z22	X23	Y23	Z23	X24	Y24	Z24	X25	Y25	Z25	X26	Y26	Z26	X27	Y27	Z27	

105	1.04	64.03386688232415	1388.1728515625	211.7520141601563	108.8971481323242	1173.688720703125	216.1240386962891	-74.7414855957032	1311.14501953125	230.9300994873047	-128.4196166992188	1146.227905273438	245.1883544921875	85.46042633056632	1326.905029296875	91.96957397460938	103.3119277954101	999.5584716796875	221.1003875732422	113.4386444091796	941.3024291992188	195.4045867919922	112.4059600830078	938.7562866210938	245.8674468994141	33.0465812683105	711.4320678710938	52.00539779663086	62.84786605834957	654.0670166015625	59.3733787536621	12.7626276016235	649.3577880859375	55.25642013549805	161.7198638916015	375.9693298339844	88.11478424072264	204.5272369384765	325.744384765625	85.9497833251953	156.0452575683593	310.603271484375	94.98594665527342	326.3582458496094	55.55493164062502	170.5553588867187	127.9898376464844	31.32497787475587	166.5675354003906	175.7420501708984	13.48861885070802	108.413101196289	-57.80147552490237	735.1728515625	399.8009338378906	-65.88768005371095	670.6050415039063	395.7108459472656	-108.8603286743164	694.7233276367188	400.2529296875	-166.5915679931641	375.0046691894531	379.1135864257813	-164.4542541503906	309.8211364746094	378.7022705078125	-211.5917053222656	327.5736999511719	380.67529296875	-241.4096221923828	20.17655754089354	299.7743225097656	-415.8150634765625	103.5284423828125	349.2618103027344	-380.7081298828125	59.76935577392576	392.3785705566406	-88.05796813964868	726.3961181640625	-3209.25390625	
106	1.05	49.80591964721673	1385.735107421875	213.2444152832031	94.21155548095697	1171.181762695313	218.0185852050781	-89.24508666992195	1308.957763671875	232.5319061279297	-143.2765502929688	1144.166259765625	246.4828338623047	71.04500579833976	1324.454833984375	93.39718627929688	88.18733215332027	997.1023559570313	223.1785125732422	98.42424774169918	938.8817138671875	197.4275360107422	97.03197479248043	936.2404174804688	247.8709869384766	21.48979377746578	710.5165405273438	52.3190803527832	51.88151168823239	653.492431640625	59.60364532470703	1.917040348052942	648.212646484375	55.09557342529297	154.2236328125	376.5511779785156	87.8220977783203	198.0096282958984	327.2745056152344	85.61083221435545	149.8383026123047	311.0750427246094	94.54041290283202	325.4242858886719	59.38280868530276	169.6675872802734	127.8399353027344	31.29748153686524	166.3703918457031	175.6641387939453	13.48360919952394	108.329963684082	-73.0098342895508	731.9674682617188	400.7355041503906	-79.60897827148439	666.9883422851563	397.3992614746094	-123.1784820556641	690.6928100585938	401.5090026855469	-185.3816680908203	372.9058837890625	378.6997680664063	-185.7190551757813	307.7618103027344	378.8968505859375	-232.4067077636719	327.4486694335938	380.4498901367188	-272.1060791015625	19.7533664703369	300.6878051757813	-444.6474304199219	109.9266128540039	347.6939392089844	-411.670654296875	64.57716369628903	391.1709899902344	-88.05817413330102	726.3966064453125	-3209.2568359375	
107	1.06	35.52590560913079	1383.358276367188	214.8379364013672	79.36304473876947	1168.702392578125	219.9354553222656	-103.8369064331055	1306.884643554688	234.1826019287109	-158.3028259277344	1142.240356445313	247.821533203125	56.6111984252929	1322.05517578125	94.94203186035156	72.8185653686523	994.7293090820313	225.1607818603516	83.13144683837886	936.51806640625	199.4051208496094	81.43210601806636	933.8331909179688	249.82666015625	9.538321495056113	709.5997314453125	52.66909790039063	40.49196624755856	652.9111938476563	59.82810592651367	-9.33355331420902	647.087890625	54.8566780090332	146.2237396240234	377.1477355957031	87.37728118896483	190.9268493652343	328.8670349121094	85.0136260986328	143.1596527099609	311.5831909179688	93.91162872314452	324.3121337890625	63.57478332519533	168.4798736572265	127.6005401611328	31.28575325012208	166.1360168457031	175.4728088378906	13.44702625274659	108.1885757446289	-88.75208282470705	729.05615234375	401.7309875488281	-94.22377014160158	663.7285766601563	399.2514953613281	-138.2572937011719	687.0969848632813	402.8500061035156	-203.7653350830078	370.9059448242188	378.3291015625	-205.9387969970703	305.8820495605469	379.0853576660156	-252.3736877441406	327.0195617675781	380.0003967285156	-298.3471069335938	19.15989494323729	301.1430969238281	-469.7421264648438	114.4500045776367	344.9523925781251	-438.6751098632813	67.96931457519528	389.0264587402344	-88.05838012695337	726.3971557617188	-3209.26025390625	
108	1.07	21.19591712951653	1381.075805664063	216.5279998779297	64.35604858398432	1166.284912109375	221.8582763671875	-118.5131378173829	1304.958862304688	235.8738098144531	-173.4974975585938	1140.483642578125	249.1932983398438	42.16258239746087	1319.7421875	96.59812927246094	57.21597290039058	992.4791259765625	227.0239562988281	67.56715393066402	934.24755859375	201.3216857910156	65.62207794189449	931.5779418945313	251.720703125	-2.85682749748234	708.657958984375	53.08634948730469	28.62873077392575	652.2885131835938	60.07615280151367	-21.04439163208011	645.9597778320313	54.58720779418945	137.6930847167968	377.740234375	86.7959747314453	183.2865600585937	330.4995422363281	84.21825408935545	136.0099792480468	312.1124572753906	93.13571166992186	322.993408203125	68.13934326171876	167.0413665771484	127.2704620361328	31.28193092346192	165.8690185546875	175.1910552978516	13.382550239563	108.006607055664	-105.0585632324219	726.5296020507813	402.7420349121094	-109.9170608520508	660.9456787109375	401.0358581542969	-154.2096710205078	684.1001586914063	404.1214294433594	-221.6684265136719	368.9624328613281	377.9808654785156	-224.9513702392578	304.0536499023438	379.1803283691406	-271.3111572265625	326.0619506835938	379.2841186523438	-320.0060119628906	18.24180221557615	301.2020568847656	-491.1650390625	116.6234970092773	341.1437988281251	-461.6639099121094	69.49022674560544	386.039306640625	-88.05859375000024	726.397705078125	-3209.263671875	
